<?xml version="1.0" encoding="utf-8"?>
<!-- Generator: Adobe Illustrator 28.1.0, SVG Export Plug-In . SVG Version: 6.00 Build 0)  -->
<svg version="1.1" id="Layer_1" xmlns="http://www.w3.org/2000/svg" xmlns:xlink="http://www.w3.org/1999/xlink" x="0px" y="0px"
	 viewBox="0 0 60 60" style="enable-background:new 0 0 60 60;" xml:space="preserve">
<style type="text/css">
	.st0{fill:#FFFFFF;}
</style>
<path class="st0" d="M10,0h40c5.5,0,10,4.5,10,10v40c0,5.5-4.5,10-10,10H10C4.5,60,0,55.5,0,50V10C0,4.5,4.5,0,10,0z"/>
<g>
	<path d="M23.6,52.3v-34c0-0.6-0.5-1.2-1.2-1.2H10.4c-0.6,0-1.2-0.5-1.2-1.2V7.7c0-0.6,0.5-1.2,1.2-1.2H50c0.6,0,1.2,0.5,1.2,1.2
		v8.2c0,0.6-0.5,1.2-1.2,1.2H38c-0.6,0-1.2,0.5-1.2,1.2v34c0,0.6-0.5,1.2-1.2,1.2H24.7C24.1,53.4,23.6,52.9,23.6,52.3z"/>
</g>
</svg>
