<?xml version="1.0" encoding="utf-8"?>
<!-- Generator: Adobe Illustrator 28.1.0, SVG Export Plug-In . SVG Version: 6.00 Build 0)  -->
<svg version="1.1" id="Layer_1" xmlns="http://www.w3.org/2000/svg" xmlns:xlink="http://www.w3.org/1999/xlink" x="0px" y="0px"
	 viewBox="0 0 275 60" style="enable-background:new 0 0 275 60;" xml:space="preserve">
<g>
	<path d="M19,13.2h15.6v5.9h9.4v-5.9h8.4V43h-5.9v5.9h-12v-3.6h-5.8v3.6H13.1V19.1H19V13.2z M21.4,15.6v25h10.8V37h3.6v-3.6h3.5V37
		h3.6v3.6H50v-25h-3.6v14.3h-3.5v-3.6h-3.6v-3.6h-3.6v3.6h-3.5V15.6H21.4z"/>
	<path d="M57.3,13.2h29.9v12h-6V31h6v12h-6v5.9H51.2V19.1h6V13.2z M59.7,15.6v25h25.1v-7.2H70.4v-3.5h7.2v-3.6h-7.2v-3.5h14.3v-7.2
		H59.7z"/>
	<path d="M92.1,13.1h15.6v17.8h10.7v12h-6v5.9H86V19h6V13.1z M94.5,15.5v25h21.4v-7.2h-10.7V15.5H94.5z"/>
	<path d="M126.9,13.2h22.7v3.6h3.6v8.4h-6V31h6v8.4h-3.6V43h-2.5v2.4h-3.6V49h-22.7v-3.6h-3.6V22.7h3.6v-3.6h2.4v-2.4h3.6V13.2z
		 M129.3,15.6v3.6h-3.6v17.9h3.6v3.6h17.9v-3.6h3.6v-3.6h-14.3V22.8h14.3v-3.6h-3.6v-3.6H129.3z"/>
	<path d="M161.6,13h22.7v3.6h3.6v22.7h-3.6v3.6h-2.5v2.4h-3.6v3.6h-22.7v-3.6H152V22.5h3.6V19h2.5v-2.4h3.6V13z M164,15.5V19h-3.6
		v17.9h3.6v3.6h17.9v-3.6h3.6V19h-3.6v-3.6H164z M171.2,22.6h10.6v10.6h-10.6V22.6z"/>
	<path d="M192.8,13h12v3.6h3.6V19h5.9v-2.4h3.6V13h8.4v29.8h-6v5.9h-8.4v-7.1h-2.3v3.6h-7.2v3.6h-15.6V19h6V13z M195.2,15.5v25h10.8
		v-7.1h3.5v3.6h3.7v-3.6h3.6v-3.6h3.5v10.7h3.6v-25h-3.6V19h-3.6v3.6h-3.6v3.6h-3.6v-3.6h-3.6V19h-3.6v-3.6H195.2z"/>
	<path d="M231.1,13.2H261v12h-6V31h6v12h-6v5.9h-29.9V19.1h6V13.2z M233.5,15.6v25h25.1v-7.2h-14.3v-3.5h7.2v-3.6h-7.2v-3.5h14.3
		v-7.2H233.5z"/>
</g>
</svg>
